<svg width="32" height="32" viewBox="0 0 32 32" fill="none" xmlns="http://www.w3.org/2000/svg">
  <path d="M24.9499 16.9515C24.9139 14.4767 26.0787 12.6482 28.4375 11.3674C27.1207 9.49095 25.1763 8.46313 22.6475 8.26368C20.2527 8.07023 17.6439 9.61478 16.6881 9.61478C15.6843 9.61478 13.3855 8.32193 11.4891 8.32193C8.23712 8.36817 4.75 10.9511 4.75 16.2187C4.75 17.7633 5.02945 19.3559 5.58834 21.0005C6.35571 23.2233 9.13045 28.4926 12.0332 28.4103C13.6618 28.3761 14.8146 27.2441 16.9274 27.2441C18.9922 27.2441 20.0679 28.4103 21.8604 28.4103C24.7992 28.3761 27.3119 23.5455 28.0433 21.3167C24.1465 19.4882 24.9499 17.0698 24.9499 16.9515ZM21.2869 6.45938C23.2193 4.16052 23.0529 2.08327 22.9929 1.5C21.2389 1.61827 19.2465 2.64608 18.1468 3.89718C16.9459 5.23828 16.2505 6.92891 16.3826 8.21575C18.2791 8.37719 19.9437 7.99828 21.2869 6.45938Z" fill="white"/>
</svg>
